<svg width="18" height="18" viewBox="0 0 18 18" fill="none" xmlns="http://www.w3.org/2000/svg">
<path d="M5.62606 10.1583C5.47796 10.1375 5.3266 10.1276 5.1727 10.1306C4.43314 10.145 3.28885 10.4462 2.03694 11.7988C1.04318 12.8724 1.00259 14.0071 0.966824 15.0081C0.932611 15.9649 0.905604 16.7207 0.111155 17.2729C0.033089 17.3272 -0.00900244 17.4198 0.00162408 17.5143C0.00825918 17.5737 0.0350588 17.6278 0.0759579 17.6687C0.100114 17.6928 0.129142 17.7123 0.161903 17.7256C1.64044 18.324 4.16971 18.0309 6.22908 15.9732C7.16437 15.0386 7.7226 14.0493 7.84327 13.1124C7.87474 12.868 7.87531 12.6295 7.84799 12.3996L5.62606 10.1583ZM5.22386 11.8808C5.14336 11.9934 5.02382 12.0679 4.88723 12.0907C3.8915 12.2565 3.54549 12.917 3.53124 12.945C3.4469 13.1204 3.2634 13.2356 3.06528 13.2356C3.04781 13.2356 3.03024 13.2347 3.01266 13.2329C2.9531 13.2269 2.8953 13.2106 2.84093 13.1845C2.5833 13.0606 2.47449 12.7506 2.59828 12.4931C2.62119 12.4456 3.17642 11.3254 4.71679 11.0688C4.7451 11.0641 4.77381 11.0617 4.80217 11.0617C5.05658 11.0617 5.27155 11.2439 5.31333 11.4946C5.33609 11.631 5.30431 11.7682 5.22386 11.8808Z" fill="white"/>
<path d="M17.6476 0.352007C17.2011 -0.0941546 16.4852 -0.119327 16.0083 0.294411C15.7086 0.554473 8.65696 6.67379 7.70586 7.62407C7.23026 8.09929 6.62009 8.91366 6.0925 9.66624L8.31443 11.9075C9.06844 11.3802 9.88741 10.7678 10.3698 10.2859C11.3319 9.32434 17.4456 2.28898 17.7055 1.98997C18.1194 1.51346 18.0941 0.798168 17.6476 0.352007Z" fill="white"/>
</svg>
