<svg width="14" height="18" viewBox="0 0 14 18" fill="none" xmlns="http://www.w3.org/2000/svg">
<path d="M5.83346 0C5.52404 0 5.2273 0.118526 5.0085 0.329505C4.78971 0.540483 4.66679 0.826632 4.66679 1.125C4.66679 1.42337 4.78971 1.70952 5.0085 1.9205C5.2273 2.13147 5.52404 2.25 5.83346 2.25H8.16679C8.47621 2.25 8.77296 2.13147 8.99175 1.9205C9.21054 1.70952 9.33346 1.42337 9.33346 1.125C9.33346 0.826632 9.21054 0.540483 8.99175 0.329505C8.77296 0.118526 8.47621 0 8.16679 0H5.83346Z" fill="white"/>
<path fill-rule="evenodd" clip-rule="evenodd" d="M0 3.375C0 2.77826 0.245833 2.20597 0.683417 1.78401C1.121 1.36205 1.71449 1.125 2.33333 1.125C2.33333 2.02011 2.70208 2.87855 3.35846 3.51149C4.01484 4.14442 4.90508 4.5 5.83333 4.5H8.16667C9.09492 4.5 9.98516 4.14442 10.6415 3.51149C11.2979 2.87855 11.6667 2.02011 11.6667 1.125C12.2855 1.125 12.879 1.36205 13.3166 1.78401C13.7542 2.20597 14 2.77826 14 3.375V15.75C14 16.3467 13.7542 16.919 13.3166 17.341C12.879 17.763 12.2855 18 11.6667 18H2.33333C1.71449 18 1.121 17.763 0.683417 17.341C0.245833 16.919 0 16.3467 0 15.75V3.375ZM3.5 7.875C3.19058 7.875 2.89383 7.99353 2.67504 8.20451C2.45625 8.41549 2.33333 8.70163 2.33333 9C2.33333 9.29837 2.45625 9.58452 2.67504 9.7955C2.89383 10.0065 3.19058 10.125 3.5 10.125H3.51167C3.82109 10.125 4.11783 10.0065 4.33662 9.7955C4.55542 9.58452 4.67833 9.29837 4.67833 9C4.67833 8.70163 4.55542 8.41549 4.33662 8.20451C4.11783 7.99353 3.82109 7.875 3.51167 7.875H3.5ZM7 7.875C6.69058 7.875 6.39383 7.99353 6.17504 8.20451C5.95625 8.41549 5.83333 8.70163 5.83333 9C5.83333 9.29837 5.95625 9.58452 6.17504 9.7955C6.39383 10.0065 6.69058 10.125 7 10.125H10.5C10.8094 10.125 11.1062 10.0065 11.325 9.7955C11.5437 9.58452 11.6667 9.29837 11.6667 9C11.6667 8.70163 11.5437 8.41549 11.325 8.20451C11.1062 7.99353 10.8094 7.875 10.5 7.875H7ZM3.5 12.375C3.19058 12.375 2.89383 12.4935 2.67504 12.7045C2.45625 12.9155 2.33333 13.2016 2.33333 13.5C2.33333 13.7984 2.45625 14.0845 2.67504 14.2955C2.89383 14.5065 3.19058 14.625 3.5 14.625H3.51167C3.82109 14.625 4.11783 14.5065 4.33662 14.2955C4.55542 14.0845 4.67833 13.7984 4.67833 13.5C4.67833 13.2016 4.55542 12.9155 4.33662 12.7045C4.11783 12.4935 3.82109 12.375 3.51167 12.375H3.5ZM7 12.375C6.69058 12.375 6.39383 12.4935 6.17504 12.7045C5.95625 12.9155 5.83333 13.2016 5.83333 13.5C5.83333 13.7984 5.95625 14.0845 6.17504 14.2955C6.39383 14.5065 6.69058 14.625 7 14.625H10.5C10.8094 14.625 11.1062 14.5065 11.325 14.2955C11.5437 14.0845 11.6667 13.7984 11.6667 13.5C11.6667 13.2016 11.5437 12.9155 11.325 12.7045C11.1062 12.4935 10.8094 12.375 10.5 12.375H7Z" fill="white"/>
</svg>
