<svg width="18" height="18" viewBox="0 0 18 18" fill="none" xmlns="http://www.w3.org/2000/svg">
<path fill-rule="evenodd" clip-rule="evenodd" d="M10.6763 1.31627C10.2488 -0.438757 7.75121 -0.438757 7.3237 1.31627C7.25987 1.57999 7.13468 1.82492 6.95831 2.03112C6.78194 2.23732 6.55938 2.39897 6.30874 2.50291C6.0581 2.60684 5.78646 2.65014 5.51592 2.62927C5.24538 2.60839 4.9836 2.52394 4.75187 2.38279C3.20832 1.44227 1.44201 3.20855 2.38254 4.75207C2.99006 5.74884 2.45117 7.04936 1.31713 7.32499C-0.439045 7.75137 -0.439045 10.25 1.31713 10.6753C1.58093 10.7392 1.8259 10.8645 2.03211 11.041C2.23831 11.2175 2.39991 11.4402 2.50375 11.691C2.6076 11.9418 2.65074 12.2135 2.62968 12.4841C2.60862 12.7547 2.52394 13.0165 2.38254 13.2482C1.44201 14.7917 3.20832 16.558 4.75187 15.6175C4.98356 15.4761 5.24537 15.3914 5.51597 15.3704C5.78658 15.3493 6.05834 15.3924 6.30912 15.4963C6.5599 15.6001 6.7826 15.7617 6.95911 15.9679C7.13561 16.1741 7.26091 16.4191 7.32482 16.6829C7.75121 18.439 10.2499 18.439 10.6752 16.6829C10.7393 16.4192 10.8647 16.1744 11.0413 15.9684C11.2178 15.7623 11.4405 15.6008 11.6912 15.497C11.9419 15.3932 12.2135 15.35 12.4841 15.3709C12.7546 15.3919 13.0164 15.4764 13.2481 15.6175C14.7917 16.558 16.558 14.7917 15.6175 13.2482C15.4763 13.0165 15.3918 12.7547 15.3709 12.4842C15.35 12.2136 15.3932 11.942 15.497 11.6913C15.6008 11.4406 15.7623 11.2179 15.9683 11.0414C16.1744 10.8648 16.4192 10.7394 16.6829 10.6753C18.439 10.2489 18.439 7.75025 16.6829 7.32499C16.4191 7.26108 16.1741 7.13578 15.9679 6.95928C15.7617 6.78278 15.6001 6.56007 15.4962 6.3093C15.3924 6.05853 15.3493 5.78677 15.3703 5.51617C15.3914 5.24556 15.4761 4.98376 15.6175 4.75207C16.558 3.20855 14.7917 1.44227 13.2481 2.38279C13.0164 2.52418 12.7546 2.60886 12.484 2.62992C12.2134 2.65098 11.9417 2.60784 11.6909 2.504C11.4401 2.40016 11.2174 2.23856 11.0409 2.03236C10.8644 1.82616 10.7391 1.58119 10.6752 1.3174L10.6763 1.31627ZM9 12.3752C9.89513 12.3752 10.7536 12.0196 11.3866 11.3867C12.0195 10.7537 12.3751 9.89526 12.3751 9.00014C12.3751 8.10502 12.0195 7.24656 11.3866 6.61362C10.7536 5.98067 9.89513 5.62509 9 5.62509C8.10487 5.62509 7.2464 5.98067 6.61344 6.61362C5.98049 7.24656 5.62489 8.10502 5.62489 9.00014C5.62489 9.89526 5.98049 10.7537 6.61344 11.3867C7.2464 12.0196 8.10487 12.3752 9 12.3752Z" fill="white"/>
</svg>
